<?xml version="1.0" standalone="no"?>
<!DOCTYPE svg PUBLIC "-//W3C//DTD SVG 20010904//EN"
 "http://www.w3.org/TR/2001/REC-SVG-20010904/DTD/svg10.dtd">
<svg version="1.0" xmlns="http://www.w3.org/2000/svg"
 width="743.000000pt" height="743.000000pt" viewBox="0 0 743.000000 743.000000"
 preserveAspectRatio="xMidYMid meet">
<metadata>
Created by potrace 1.14, written by Peter Selinger 2001-2017
</metadata>
<g transform="translate(0.000000,743.000000) scale(0.100000,-0.100000)"
fill="#000000" stroke="none">
<path d="M2386 7242 c-3 -5 -20 -8 -38 -7 -18 1 -38 -2 -44 -7 -7 -5 -28 -9
-48 -10 -20 -1 -36 -5 -36 -9 0 -4 -46 -10 -102 -13 -147 -6 -192 -11 -207
-21 -8 -4 -38 -8 -67 -7 -30 0 -54 -4 -54 -8 0 -9 -69 -23 -130 -25 -25 -1
-58 -7 -75 -14 -16 -7 -31 -12 -32 -12 -3 1 -15 -9 -99 -82 -33 -30 -74 -62
-90 -71 -16 -10 -41 -34 -54 -54 -14 -21 -29 -42 -35 -49 -5 -7 -15 -19 -21
-26 -13 -16 -44 -73 -45 -84 -2 -14 -19 -58 -29 -75 -6 -10 -10 -25 -10 -33 0
-8 -4 -15 -9 -15 -6 0 -10 -8 -9 -17 1 -40 -21 -117 -41 -144 -12 -15 -21 -30
-21 -33 0 -3 -12 -22 -26 -43 -28 -40 -73 -136 -79 -166 -2 -10 -7 -27 -10
-37 -9 -27 -16 -61 -19 -90 -7 -59 -19 -115 -25 -120 -4 -3 -22 -26 -40 -51
-29 -42 -36 -46 -63 -42 -18 3 -28 1 -24 -5 4 -6 -12 -9 -39 -7 -25 1 -45 -2
-45 -6 0 -5 -8 -9 -19 -9 -10 0 -24 -7 -31 -15 -7 -8 -19 -15 -26 -15 -8 0
-14 -4 -14 -10 0 -5 -5 -10 -11 -10 -10 0 -69 -54 -70 -64 -2 -22 -13 -46 -20
-46 -5 0 -6 -7 -3 -15 4 -8 2 -15 -4 -15 -22 0 -53 -169 -34 -193 5 -6 8 -22
7 -34 -1 -13 2 -23 7 -23 4 0 8 -11 8 -25 0 -14 5 -25 11 -25 6 0 9 -6 7 -12
-3 -7 8 -26 24 -41 15 -16 28 -32 28 -36 0 -4 15 -15 33 -26 17 -10 37 -24 44
-29 35 -31 43 -36 58 -36 8 0 15 -4 15 -9 0 -9 48 -26 63 -23 4 1 10 -4 13
-12 3 -8 12 -12 20 -9 8 3 20 1 27 -4 6 -4 55 -8 107 -8 53 1 100 -4 106 -10
13 -13 13 -168 0 -177 -7 -5 -6 -8 2 -8 7 0 10 -5 6 -11 -3 -6 -8 -50 -11 -97
-2 -48 -8 -111 -12 -140 -5 -29 -5 -55 -1 -57 4 -2 8 -42 9 -87 1 -45 4 -84 6
-87 3 -2 1 -9 -5 -16 -5 -6 -12 -29 -16 -50 -9 -56 -23 -352 -24 -535 -1 -158
5 -220 21 -220 5 0 9 -4 9 -9 0 -5 5 -22 12 -38 6 -15 11 -31 10 -35 -1 -5 3
-8 8 -8 6 0 10 -7 10 -16 0 -9 9 -29 21 -45 11 -16 18 -29 14 -29 -3 0 1 -10
9 -22 9 -12 16 -30 16 -40 0 -10 4 -18 9 -18 5 0 12 -12 15 -26 4 -14 18 -37
31 -50 14 -14 25 -29 25 -35 0 -5 10 -20 23 -33 32 -34 57 -65 57 -73 0 -3 14
-19 30 -35 17 -15 30 -31 30 -34 0 -2 10 -15 23 -28 18 -19 54 -60 107 -123 5
-7 10 -15 10 -17 0 -3 17 -32 37 -63 21 -32 36 -64 35 -70 -2 -7 1 -13 6 -13
4 0 16 -19 26 -42 9 -24 24 -55 32 -70 8 -14 14 -33 14 -42 0 -9 4 -16 9 -16
4 0 7 -11 6 -25 -2 -14 1 -25 6 -25 5 0 9 -13 9 -30 0 -16 5 -30 12 -30 6 0 9
-3 5 -6 -3 -3 -1 -18 5 -33 11 -29 19 -58 22 -83 1 -10 5 -21 9 -24 4 -4 7
-20 7 -36 0 -15 5 -28 11 -28 6 0 9 -6 6 -14 -3 -7 1 -25 8 -39 7 -14 11 -28
7 -31 -3 -3 1 -6 8 -6 7 0 11 -3 7 -6 -3 -3 0 -22 6 -42 7 -21 12 -46 12 -57
0 -11 3 -22 7 -25 4 -3 8 -47 9 -98 1 -51 5 -92 9 -92 3 0 6 -30 5 -67 -1 -38
2 -70 6 -73 4 -3 9 -27 10 -53 2 -26 6 -47 10 -47 4 0 6 -13 4 -30 -2 -16 0
-32 4 -34 4 -3 9 -28 10 -57 1 -28 5 -57 8 -63 4 -6 8 -22 9 -36 0 -14 6 -38
12 -53 7 -16 12 -31 12 -34 0 -3 11 -21 25 -39 14 -18 25 -35 25 -38 0 -3 11
-17 25 -32 14 -15 25 -30 25 -34 0 -22 138 -162 152 -154 4 3 8 1 8 -3 0 -9
80 -48 93 -45 4 1 7 -3 7 -8 0 -6 6 -10 13 -10 6 -1 30 -9 52 -20 22 -10 43
-16 47 -14 5 3 8 1 8 -4 0 -10 31 -23 60 -26 8 -1 25 -7 38 -15 13 -7 32 -14
42 -16 11 -2 34 -10 52 -18 31 -14 88 -30 148 -43 14 -3 30 -6 35 -7 6 -2 16
-6 23 -10 6 -5 12 -6 12 -2 0 3 14 -1 30 -10 17 -9 30 -12 30 -8 0 5 4 3 8 -2
11 -15 62 -36 73 -30 5 4 9 2 9 -4 0 -8 55 -26 62 -21 2 1 19 -4 38 -12 19 -8
41 -13 48 -11 6 3 12 0 12 -5 0 -11 63 -22 140 -25 30 -2 61 -6 69 -11 11 -7
12 -6 6 5 -7 12 -6 12 7 1 9 -7 20 -12 24 -11 5 1 11 0 14 -1 10 -4 180 -10
351 -14 97 -2 182 -6 188 -10 6 -4 11 -2 11 4 0 7 6 8 19 1 10 -6 21 -7 25 -4
4 4 67 6 141 6 93 -1 135 2 135 9 0 6 3 8 7 5 3 -4 12 -2 20 4 7 6 28 12 45
14 18 1 40 4 48 7 54 19 95 30 121 33 17 3 38 10 47 17 13 11 14 11 7 -1 -5
-9 -4 -12 2 -8 6 4 23 12 39 18 16 7 31 13 34 15 3 1 15 5 28 9 12 4 22 11 22
16 0 11 77 21 175 23 74 1 90 6 160 40 80 39 123 66 178 110 18 15 64 51 102
81 39 30 77 62 86 70 9 8 21 15 27 15 5 0 12 3 14 8 2 4 17 18 33 31 17 12 49
40 71 61 23 22 44 36 48 33 3 -4 6 -1 6 5 0 6 11 23 25 37 14 14 23 25 19 25
-4 0 3 9 16 20 13 11 20 20 16 20 -4 0 5 17 19 37 14 21 25 48 25 61 0 13 4
21 9 18 5 -4 12 7 16 24 4 16 11 30 16 30 5 0 8 3 7 7 -1 5 3 18 10 29 6 12 9
23 7 26 -2 2 4 31 14 64 10 33 17 67 15 77 -1 9 2 17 7 17 5 0 9 11 9 25 0 14
4 25 10 25 5 0 7 6 4 14 -3 8 0 25 7 38 7 13 12 29 11 36 -2 6 2 12 8 12 5 0
9 3 8 8 0 4 2 15 5 25 4 9 10 25 14 35 3 9 7 37 8 61 0 25 5 46 11 48 5 2 8
25 7 53 -1 27 2 50 5 50 12 0 -3 760 -15 769 -5 3 -8 77 -8 164 0 86 -3 157
-7 157 -5 0 -8 62 -8 138 0 76 -3 142 -7 146 -5 4 -9 26 -10 49 -5 84 -16 157
-23 152 -4 -2 -7 28 -8 68 0 75 -10 162 -19 187 -4 8 -7 26 -8 40 -2 30 -17
119 -22 140 -5 15 -10 51 -19 133 -3 26 -10 47 -14 47 -4 0 -7 19 -7 42 0 24
-4 70 -8 103 -5 33 -9 83 -11 110 -1 28 -5 65 -8 83 -6 24 -3 34 8 38 9 3 16
12 16 19 0 20 25 25 128 27 50 1 92 5 92 10 0 4 9 8 20 8 11 0 20 4 20 10 0 5
10 8 21 7 12 -2 31 6 43 17 12 12 32 28 44 36 12 8 36 36 54 62 18 26 47 55
65 65 18 10 33 22 33 27 0 5 2 7 6 4 7 -7 61 45 56 55 -2 4 1 7 7 7 14 0 42
93 44 145 0 25 5 45 9 45 4 0 7 3 6 8 -1 4 5 27 12 52 16 52 22 180 9 180 -5
0 -9 11 -9 25 0 26 -13 56 -39 88 -8 9 -11 17 -7 17 4 0 1 7 -6 15 -30 33 -38
45 -38 55 0 5 -4 10 -8 10 -5 0 -8 34 -8 75 1 41 -1 75 -5 75 -4 0 -10 35 -13
78 -6 97 -10 120 -24 155 -7 16 -12 31 -12 35 0 4 -20 41 -44 82 -72 123 -164
204 -273 239 -24 8 -43 17 -43 21 0 4 -63 7 -141 6 l-141 -1 -32 32 c-17 18
-36 33 -42 33 -7 0 -15 7 -18 16 -3 8 -10 12 -16 9 -5 -3 -10 -2 -10 3 0 10
-60 38 -72 34 -5 -1 -8 2 -8 8 0 5 -11 10 -24 10 -14 0 -27 4 -30 9 -3 4 -69
9 -146 9 -94 0 -146 4 -156 12 -7 7 -14 9 -14 6 0 -4 -11 4 -24 18 -13 15 -26
26 -30 26 -4 0 -16 9 -28 20 -12 10 -24 17 -28 15 -8 -5 -89 80 -107 113 -32
55 -39 67 -58 90 -22 28 -66 71 -87 87 -20 16 -92 49 -100 47 -5 -1 -8 2 -8 7
0 10 -57 26 -77 22 -7 -1 -13 3 -13 9 0 5 -13 10 -29 10 -17 0 -33 5 -36 10
-4 6 -14 10 -23 8 -10 -1 -23 1 -30 6 -8 4 -104 9 -215 9 -246 1 -310 -14
-447 -101 -81 -52 -111 -56 -148 -21 -17 16 -35 29 -39 29 -8 1 -73 85 -73 95
0 11 -41 45 -55 45 -8 0 -15 4 -15 9 0 5 -10 13 -22 17 -28 9 -126 9 -135 1
-9 -9 -43 -9 -43 1 0 4 -65 7 -144 7 -85 0 -142 -4 -138 -9 3 -5 -1 -7 -9 -4
-8 3 -23 2 -34 -2 -11 -4 -30 -4 -42 1 -13 5 -23 5 -23 1 0 -9 -128 -6 -190 4
-25 4 -53 6 -62 5 -10 -1 -18 2 -18 7 0 11 -97 15 -104 4z"/>
</g>
</svg>
