<?xml version="1.0" standalone="no"?>
<!DOCTYPE svg PUBLIC "-//W3C//DTD SVG 20010904//EN"
 "http://www.w3.org/TR/2001/REC-SVG-20010904/DTD/svg10.dtd">
<svg version="1.0" xmlns="http://www.w3.org/2000/svg"
 width="555.000000pt" height="450.000000pt" viewBox="0 0 555.000000 450.000000"
 preserveAspectRatio="xMidYMid meet">

<g transform="translate(0.000000,450.000000) scale(0.100000,-0.100000)"
fill="#000000" stroke="none">
<path d="M2105 4360 c-11 -4 -56 -10 -100 -14 -44 -3 -105 -11 -135 -17 -30
-5 -76 -13 -102 -18 -45 -7 -86 -34 -160 -106 -31 -30 -88 -144 -88 -176 0
-12 -16 -48 -36 -80 -23 -37 -44 -90 -56 -141 -24 -99 -45 -130 -95 -135 -73
-8 -121 -52 -143 -134 -7 -26 -6 -49 5 -85 25 -85 92 -131 207 -143 70 -7 92
-21 83 -51 -6 -21 -30 -508 -30 -611 0 -84 1 -89 52 -190 35 -69 78 -134 129
-194 43 -50 91 -121 110 -160 53 -112 112 -332 125 -465 6 -63 12 -117 14
-120 2 -4 9 -35 14 -69 11 -66 53 -140 110 -195 29 -28 185 -95 291 -126 36
-10 105 -32 153 -49 101 -35 245 -49 487 -47 148 1 265 22 340 61 16 8 49 15
74 15 68 0 135 30 227 101 170 132 232 207 254 308 4 18 21 74 38 125 l32 91
-3 265 c-3 360 -21 583 -66 830 -9 47 -20 126 -24 175 -11 111 -3 125 70 125
69 0 103 19 181 97 56 58 68 76 71 109 2 21 9 50 14 64 16 42 6 107 -26 163
-24 42 -30 67 -34 133 -10 179 -111 283 -274 284 -60 0 -74 3 -90 21 -34 38
-93 59 -171 59 -65 0 -77 3 -120 33 -50 34 -82 66 -83 82 0 16 -65 82 -96 98
-71 36 -149 49 -271 45 -99 -3 -125 -8 -161 -27 -23 -13 -45 -27 -48 -32 -17
-29 -83 8 -127 71 -17 24 -21 25 -150 27 -72 1 -186 4 -252 7 -66 2 -129 1
-140 -4z m202 -714 c44 -1 57 -6 85 -32 47 -45 69 -54 130 -54 67 0 116 14
162 45 42 29 63 24 106 -27 46 -54 183 -65 298 -23 38 14 72 25 75 25 3 0 27
-18 52 -40 25 -22 52 -40 58 -40 7 0 49 -15 94 -34 44 -18 92 -36 106 -40 34
-8 67 -44 67 -71 0 -50 32 -116 68 -140 20 -14 44 -25 52 -25 9 0 23 -15 32
-33 10 -20 31 -41 51 -50 34 -17 35 -18 41 -94 4 -43 18 -143 31 -223 43 -271
54 -355 54 -435 1 -44 6 -168 11 -275 11 -204 3 -339 -26 -408 -7 -18 -21 -63
-30 -100 -9 -37 -29 -94 -46 -128 -29 -61 -37 -69 -215 -214 -73 -60 -134 -89
-186 -90 -21 0 -63 -9 -95 -20 -172 -61 -293 -71 -607 -51 -123 8 -140 12
-329 76 -298 100 -314 108 -383 208 -32 46 -60 166 -68 297 -9 136 -76 367
-140 488 -20 37 -70 108 -111 157 -105 125 -174 276 -174 381 0 37 17 28 24
-11 17 -88 122 -145 281 -153 83 -4 94 -2 144 23 33 17 97 35 160 47 169 30
171 30 171 40 0 11 -11 10 -159 -16 -52 -9 -96 -14 -99 -11 -3 2 13 32 35 65
29 42 44 79 53 124 11 61 10 70 -14 143 -14 43 -35 91 -45 107 -30 44 -96 93
-154 112 -98 31 -80 37 103 30 96 -3 205 -9 243 -12 43 -4 67 -3 67 3 0 33
-606 43 -633 11 -7 -8 -29 -25 -50 -39 -20 -13 -49 -41 -63 -61 -15 -21 -30
-35 -35 -32 -8 5 -4 118 7 189 4 29 7 31 39 27 29 -4 40 1 70 31 29 29 35 42
35 79 0 36 5 49 31 74 17 16 39 46 50 66 24 47 50 55 88 27 71 -53 242 4 291
96 14 27 16 27 80 19 36 -4 88 -8 117 -8z m-482 -510 c88 -28 147 -65 174
-110 11 -17 31 -66 45 -108 26 -73 26 -79 13 -137 -8 -33 -23 -72 -33 -87 -10
-14 -31 -45 -45 -68 -38 -62 -101 -89 -209 -89 -74 0 -94 3 -151 30 -103 48
-119 84 -120 277 0 92 3 133 16 162 33 80 130 153 202 154 18 0 67 -11 108
-24z"/>
<path d="M2645 3139 c-71 -9 -121 -29 -156 -61 -22 -20 -27 -37 -34 -104 -5
-43 -9 -124 -9 -179 -1 -93 2 -104 32 -162 45 -88 85 -129 166 -171 l71 -37
115 3 c63 1 140 3 170 4 30 1 82 -2 115 -6 48 -7 87 -3 190 17 72 14 163 29
203 33 39 3 72 11 72 17 0 14 -116 1 -282 -30 -128 -24 -143 -25 -213 -13 -68
12 -74 15 -62 29 8 9 33 50 55 92 63 115 59 168 -23 365 -10 24 -37 46 -102
85 -143 85 -140 81 -43 77 50 -2 141 -17 224 -37 130 -31 143 -33 207 -22 37
6 84 11 103 11 19 0 37 4 40 9 11 18 -27 21 -117 9 -87 -11 -99 -10 -227 17
-81 18 -175 30 -235 32 -60 2 -113 10 -132 18 -34 16 -39 16 -128 4z m262
-116 c121 -74 121 -74 142 -131 11 -31 27 -75 35 -97 28 -75 21 -127 -30 -221
-25 -47 -56 -91 -68 -99 -30 -20 -193 -36 -245 -24 -63 14 -155 64 -186 101
-16 18 -42 62 -59 98 -25 53 -31 78 -31 135 0 99 16 232 30 251 6 9 54 29 106
44 131 40 155 35 306 -57z"/>
<path d="M2722 2778 c-18 -18 -15 -42 8 -63 37 -34 109 12 84 53 -13 21 -74
28 -92 10z"/>
<path d="M2419 2371 c-25 -44 -84 -52 -357 -50 -211 1 -234 0 -252 -16 -41
-37 -18 -72 65 -98 185 -60 524 -102 556 -70 19 19 7 23 -38 11 -31 -7 -71 -6
-163 7 -132 18 -150 22 -150 37 0 6 -7 7 -16 4 -25 -10 -94 5 -94 20 0 17 -17
19 -22 3 -5 -14 -104 15 -128 37 -12 12 -12 16 2 30 14 15 47 16 265 15 279
-2 320 5 348 60 17 32 18 39 8 39 -5 0 -15 -13 -24 -29z"/>
<path d="M2171 2023 c-8 -18 -9 -29 -2 -36 14 -14 19 -7 27 31 8 39 -8 42 -25
5z"/>
<path d="M2082 2028 c-14 -14 -16 -48 -4 -48 8 0 32 43 32 55 0 9 -16 5 -28
-7z"/>
<path d="M2256 2013 c-3 -10 -10 -28 -15 -40 -6 -14 -6 -25 -1 -28 11 -7 52
69 43 79 -11 11 -20 7 -27 -11z"/>
<path d="M2410 1980 c0 -40 13 -53 24 -24 10 27 7 52 -9 58 -12 4 -15 -3 -15
-34z"/>
<path d="M2547 1963 c-4 -3 -7 -17 -7 -30 0 -33 24 -24 28 10 3 26 -7 35 -21
20z"/>
<path d="M2804 1931 c-14 -22 -23 -45 -19 -51 5 -8 11 -6 20 7 39 58 45 72 36
77 -6 4 -22 -11 -37 -33z"/>
<path d="M3033 1920 c-11 -43 -1 -63 16 -31 13 23 15 71 3 71 -4 0 -13 -18
-19 -40z"/>
<path d="M3167 1932 c-29 -30 -33 -42 -17 -42 12 0 59 50 60 63 0 15 -17 6
-43 -21z"/>
<path d="M2636 1928 c-18 -25 -21 -48 -6 -48 8 0 40 51 40 65 0 13 -20 3 -34
-17z"/>
<path d="M2927 1908 c-22 -54 -5 -76 17 -23 9 21 16 44 16 51 0 28 -17 13 -33
-28z"/>
<path d="M2140 1890 c-61 -21 -115 -72 -149 -144 -32 -65 -29 -155 8 -232 36
-77 73 -105 181 -139 47 -15 138 -45 203 -67 77 -27 121 -38 125 -31 4 6 29
25 56 42 41 25 60 31 107 31 70 0 112 -30 131 -92 l12 -40 55 7 c31 3 101 10
156 14 126 10 205 45 251 113 29 42 29 45 32 201 4 156 3 159 -22 197 -56 85
-191 126 -313 96 -179 -45 -214 -50 -307 -39 -50 6 -125 23 -166 37 -71 25
-253 66 -289 66 -9 -1 -41 -9 -71 -20z"/>
<path d="M1709 2844 c-18 -22 0 -48 37 -52 35 -5 58 22 43 49 -12 24 -61 25
-80 3z"/>
</g>
</svg>
